<?xml version="1.0" encoding="UTF-8" standalone="no"?><!DOCTYPE svg PUBLIC "-//W3C//DTD SVG 1.1//EN" "http://www.w3.org/Graphics/SVG/1.1/DTD/svg11.dtd"><svg width="100%" height="100%" viewBox="0 0 155 39" version="1.1" xmlns="http://www.w3.org/2000/svg" xmlns:xlink="http://www.w3.org/1999/xlink" xml:space="preserve" xmlns:serif="http://www.serif.com/" style="fill-rule:evenodd;clip-rule:evenodd;stroke-linejoin:round;stroke-miterlimit:1.41421;"><path d="M55.529,0c10.747,0 19.472,8.725 19.472,19.472c0,10.747 -8.725,19.472 -19.472,19.472c-10.747,0 -19.472,-8.725 -19.472,-19.472c0,-10.747 8.725,-19.472 19.472,-19.472Zm79.196,0c10.747,0 19.472,8.725 19.472,19.472c0,10.747 -8.725,19.472 -19.472,19.472c-10.746,0 -19.471,-8.725 -19.471,-19.472c0,-10.747 8.725,-19.472 19.471,-19.472Zm-113.007,9.27c-3.802,-0.834 -7.922,0.499 -10.478,3.767c-3.551,4.542 -2.747,11.112 1.795,14.664c4.541,3.551 11.112,2.747 14.663,-1.794l0.024,-0.031l7.139,5.523l-0.053,0.067c-6.62,8.466 -18.867,9.965 -27.333,3.345c-8.466,-6.62 -9.965,-18.868 -3.345,-27.334c5.677,-7.26 15.493,-9.396 23.514,-5.682l0.067,0.031l0.063,0.03l0.063,0.03l0.076,0.036l0.052,0.025l0.061,0.03l0.063,0.031l0.063,0.032l0.063,0.031l0.078,0.039l0.05,0.026l0.065,0.034l0.057,0.029l0.062,0.033l0.062,0.033l0.062,0.033l0.073,0.039l0.052,0.028l0.061,0.034l0.062,0.034l0.062,0.034l0.061,0.035l0.075,0.042l0.05,0.029l0.059,0.034l0.062,0.036l0.061,0.036l0.061,0.036l0.061,0.036l0.064,0.039c0.039,0.023 0.077,0.046 0.115,0.069l0.064,0.04l0.06,0.037l0.061,0.038l0.071,0.045l0.051,0.032l0.058,0.038l0.06,0.039l0.06,0.039l0.06,0.039l0.06,0.04l0.062,0.041l0.057,0.038l0.059,0.041l0.059,0.04l0.06,0.041l0.059,0.041l0.068,0.048l0.05,0.035l0.058,0.041l0.059,0.042l0.058,0.043l0.059,0.042l0.071,0.052l0.048,0.036l0.056,0.041l0.057,0.044l0.058,0.043l0.058,0.044l0.058,0.045l0.065,0.05l0.05,0.039c0.021,0.017 0.043,0.034 0.065,0.051l0.049,0.039l0.057,0.045l0.056,0.046l0.056,0.045l0.069,0.056l0.044,0.036l0.056,0.046l0.055,0.046l0.054,0.046l0.067,0.056l0.045,0.038l0.054,0.047l0.055,0.047l0.052,0.046l0.065,0.057l0.045,0.04l0.054,0.047l0.053,0.048l0.05,0.046l0.064,0.058l0.045,0.041l0.052,0.049l0.053,0.048l0.048,0.046l0.062,0.058l0.045,0.043l0.052,0.05l0.051,0.049l0.046,0.045l0.061,0.059l0.046,0.046l0.05,0.05l0.05,0.05l0.045,0.045l0.058,0.059l0.046,0.048l0.05,0.051l0.049,0.051l0.039,0.04l0,0c0.393,0.413 0.766,0.841 1.118,1.281l-11.671,14.924l-7.11,-5.56l5.804,-7.422Zm79.196,0c-3.801,-0.834 -7.921,0.499 -10.477,3.767c-3.551,4.542 -2.747,11.112 1.794,14.664c4.542,3.551 11.112,2.747 14.664,-1.794l0.024,-0.031l7.138,5.523l-0.052,0.067c-6.62,8.466 -18.868,9.965 -27.334,3.345c-8.466,-6.62 -9.964,-18.868 -3.344,-27.334c5.677,-7.26 15.493,-9.396 23.514,-5.682l0.067,0.031l0.063,0.03l0.063,0.03l0.075,0.036l0.053,0.025l0.061,0.03l0.063,0.031l0.063,0.032l0.062,0.031l0.078,0.039l0.051,0.026l0.065,0.034l0.056,0.029l0.063,0.033l0.062,0.033l0.062,0.033l0.072,0.039l0.053,0.028l0.061,0.034l0.062,0.034l0.061,0.034l0.062,0.035l0.075,0.042l0.05,0.029l0.059,0.034l0.061,0.036l0.062,0.036l0.061,0.036l0.061,0.036l0.064,0.039c0.038,0.023 0.076,0.046 0.114,0.069l0.065,0.04l0.06,0.037l0.06,0.038l0.072,0.045l0.05,0.032l0.059,0.038l0.06,0.039l0.06,0.039l0.06,0.039l0.059,0.04l0.063,0.041l0.056,0.038l0.06,0.041l0.059,0.04l0.059,0.041l0.059,0.041l0.069,0.048l0.05,0.035l0.058,0.041l0.059,0.042l0.058,0.043l0.059,0.042l0.071,0.052l0.047,0.036l0.056,0.041l0.058,0.044l0.058,0.043l0.058,0.044l0.057,0.045l0.066,0.05l0.049,0.039c0.022,0.017 0.044,0.034 0.066,0.051l0.049,0.039l0.057,0.045l0.056,0.046l0.056,0.045l0.069,0.056l0.044,0.036l0.055,0.046l0.056,0.046l0.054,0.046l0.067,0.056l0.044,0.038l0.055,0.047l0.055,0.047l0.051,0.046l0.066,0.057l0.045,0.04l0.053,0.047l0.054,0.048l0.05,0.046l0.063,0.058l0.046,0.041l0.052,0.049l0.052,0.048l0.049,0.046l0.061,0.058l0.046,0.043l0.052,0.05l0.051,0.049l0.046,0.045l0.06,0.059l0.046,0.046l0.051,0.05l0.05,0.05l0.044,0.045l0.059,0.059l0.046,0.048l0.049,0.051l0.049,0.051l0.039,0.04l0,0c0.394,0.413 0.767,0.841 1.118,1.281l-11.67,14.924l-7.11,-5.56l5.803,-7.422Zm-45.385,-0.244c5.765,0 10.446,4.681 10.446,10.446c0,5.765 -4.681,10.446 -10.446,10.446c-5.765,0 -10.446,-4.681 -10.446,-10.446c0,-5.765 4.681,-10.446 10.446,-10.446Zm79.196,0c5.766,0 10.446,4.681 10.446,10.446c0,5.765 -4.68,10.446 -10.446,10.446c-5.765,0 -10.445,-4.681 -10.445,-10.446c0,-5.765 4.68,-10.446 10.445,-10.446Z"/></svg>