<?xml version="1.0" encoding="UTF-8" standalone="no"?><!DOCTYPE svg PUBLIC "-//W3C//DTD SVG 1.1//EN" "http://www.w3.org/Graphics/SVG/1.1/DTD/svg11.dtd"><svg width="100%" height="100%" viewBox="0 0 203 45" version="1.1" xmlns="http://www.w3.org/2000/svg" xmlns:xlink="http://www.w3.org/1999/xlink" xml:space="preserve" xmlns:serif="http://www.serif.com/" style="fill-rule:evenodd;clip-rule:evenodd;stroke-linejoin:round;stroke-miterlimit:1.41421;"><path d="M70.577,0c12.328,0 22.337,10.009 22.337,22.338c0,12.328 -10.009,22.337 -22.337,22.337c-12.329,0 -22.338,-10.009 -22.338,-22.337c0,-12.329 10.009,-22.338 22.338,-22.338Zm-59.454,26.551c1.676,4.563 6.07,7.803 11.215,7.803c2.304,0 4.457,-0.65 6.286,-1.776l7.406,7.405c-3.783,2.941 -8.535,4.692 -13.692,4.692c-12.329,0 -22.338,-10.009 -22.338,-22.337c0,-12.329 10.009,-22.338 22.338,-22.338c10.867,0 19.932,7.777 21.915,18.063l0.012,0.061c0.274,1.365 0.41,2.774 0.41,4.214c0,1.444 -0.137,2.856 -0.447,4.213l-33.105,0Zm96.478,0c1.676,4.563 6.07,7.803 11.215,7.803c2.304,0 4.457,-0.65 6.286,-1.776l7.406,7.405c-3.783,2.941 -8.535,4.692 -13.692,4.692c-12.329,0 -22.338,-10.009 -22.338,-22.337c0,-12.329 10.009,-22.338 22.338,-22.338c10.867,0 19.932,7.777 21.915,18.063l0.012,0.061c0.274,1.365 0.41,2.774 0.41,4.214c0,1.444 -0.137,2.856 -0.447,4.213l-33.105,0Zm59.454,-26.551c12.328,0 22.337,10.009 22.337,22.338c0,12.328 -10.009,22.337 -22.337,22.337c-12.329,0 -22.338,-10.009 -22.338,-22.337c0,-12.329 10.009,-22.338 22.338,-22.338Zm28.76,31.829c3.545,0 6.423,2.878 6.423,6.423c0,3.545 -2.878,6.423 -6.423,6.423c-3.545,0 -6.423,-2.878 -6.423,-6.423c0,-3.545 2.878,-6.423 6.423,-6.423Zm-125.238,-21.508c6.632,0 12.016,5.385 12.016,12.017c0,6.632 -5.384,12.016 -12.016,12.016c-6.632,0 -12.017,-5.384 -12.017,-12.016c0,-6.632 5.385,-12.017 12.017,-12.017Zm96.478,0c6.632,0 12.016,5.385 12.016,12.017c0,6.632 -5.384,12.016 -12.016,12.016c-6.632,0 -12.017,-5.384 -12.017,-12.016c0,-6.632 5.385,-12.017 12.017,-12.017Zm-155.932,7.803l22.43,0c-1.677,-4.563 -6.071,-7.803 -11.215,-7.803c-5.145,0 -9.539,3.24 -11.215,7.803Zm96.478,0l22.43,0c-1.677,-4.563 -6.071,-7.803 -11.215,-7.803c-5.145,0 -9.539,3.24 -11.215,7.803Z"/></svg>