<?xml version="1.0" encoding="UTF-8" standalone="no"?><!DOCTYPE svg PUBLIC "-//W3C//DTD SVG 1.1//EN" "http://www.w3.org/Graphics/SVG/1.1/DTD/svg11.dtd"><svg width="100%" height="100%" viewBox="0 0 25 25" version="1.1" xmlns="http://www.w3.org/2000/svg" xmlns:xlink="http://www.w3.org/1999/xlink" xml:space="preserve" xmlns:serif="http://www.serif.com/" style="fill-rule:evenodd;clip-rule:evenodd;stroke-linejoin:round;stroke-miterlimit:1.41421;"><path d="M16.634,0c4.175,0 7.561,3.386 7.561,7.561l0,9.073c0,4.175 -3.386,7.561 -7.561,7.561l-9.073,0c-4.175,0 -7.561,-3.386 -7.561,-7.561l0,-9.073c0,-4.175 3.386,-7.561 7.561,-7.561l9.073,0Zm0,2.268l-9.073,0c-2.919,0 -5.293,2.374 -5.293,5.293l0,9.073c0,2.918 2.374,5.292 5.293,5.292l9.073,0c2.918,0 5.292,-2.374 5.292,-5.292l0,-9.073c0,-2.919 -2.374,-5.293 -5.292,-5.293Zm-4.537,3.781c-3.34,0 -6.048,2.708 -6.048,6.048c0,3.341 2.708,6.049 6.048,6.049c3.341,0 6.049,-2.708 6.049,-6.049c0,-3.34 -2.708,-6.048 -6.049,-6.048Zm0,9.829c-2.083,0 -3.78,-1.697 -3.78,-3.781c0,-2.085 1.697,-3.78 3.78,-3.78c2.084,0 3.781,1.695 3.781,3.78c0,2.084 -1.697,3.781 -3.781,3.781Zm6.503,-11.089c0.444,0 0.806,0.361 0.806,0.806c0,0.445 -0.362,0.806 -0.806,0.806c-0.445,0 -0.806,-0.361 -0.806,-0.806c0,-0.445 0.361,-0.806 0.806,-0.806Z" style="fill-rule:nonzero;"/></svg>