<?xml version="1.0" encoding="UTF-8" standalone="no"?><!DOCTYPE svg PUBLIC "-//W3C//DTD SVG 1.1//EN" "http://www.w3.org/Graphics/SVG/1.1/DTD/svg11.dtd"><svg width="100%" height="100%" viewBox="0 0 16 16" version="1.1" xmlns="http://www.w3.org/2000/svg" xmlns:xlink="http://www.w3.org/1999/xlink" xml:space="preserve" xmlns:serif="http://www.serif.com/" style="fill-rule:evenodd;clip-rule:evenodd;stroke-linejoin:round;stroke-miterlimit:1.41421;"><path id="LinkedIn_3_" d="M15.785,9.249l0,5.834l-3.385,0l0,-5.446c0,-1.37 -0.488,-2.3 -1.712,-2.3c-0.937,0 -1.489,0.63 -1.736,1.236c-0.089,0.219 -0.116,0.524 -0.116,0.826l0,5.684l-3.381,0c0,0 0.045,-9.222 0,-10.177l3.382,0l0,1.443c-0.005,0.012 -0.014,0.022 -0.019,0.035l0.019,0l0,-0.035c0.452,-0.693 1.252,-1.681 3.05,-1.681c2.231,0 3.898,1.454 3.898,4.581Zm-13.87,-9.249c-1.157,0 -1.915,0.759 -1.915,1.76c0,0.974 0.735,1.759 1.871,1.759l0.021,0c1.182,0 1.915,-0.785 1.915,-1.759c-0.023,-1.001 -0.733,-1.76 -1.892,-1.76Zm-1.713,15.083l3.383,0l0,-10.177l-3.383,0l0,10.177Z" style="fill-rule:nonzero;"/></svg>