<?xml version="1.0" encoding="UTF-8" standalone="no"?><!DOCTYPE svg PUBLIC "-//W3C//DTD SVG 1.1//EN" "http://www.w3.org/Graphics/SVG/1.1/DTD/svg11.dtd"><svg width="100%" height="100%" viewBox="0 0 17 24" version="1.1" xmlns="http://www.w3.org/2000/svg" xmlns:xlink="http://www.w3.org/1999/xlink" xml:space="preserve" xmlns:serif="http://www.serif.com/" style="fill-rule:evenodd;clip-rule:evenodd;stroke-linejoin:round;stroke-miterlimit:1.41421;"><path id="Pin-Icon" serif:id="Pin Icon" d="M16.498,11.416c-1.921,6.462 -7.998,12.584 -7.998,12.584c0,0 -6.056,-6.106 -7.987,-12.554c-0.326,-0.907 -0.513,-1.93 -0.513,-2.951c0,-4.719 3.806,-8.495 8.5,-8.495c4.694,0 8.5,3.776 8.5,8.495c0,1.009 -0.183,2.023 -0.502,2.921Zm-7.998,-6.416c-1.933,0 -3.5,1.567 -3.5,3.5c0,1.933 1.567,3.5 3.5,3.5c1.933,0 3.5,-1.567 3.5,-3.5c0,-1.933 -1.567,-3.5 -3.5,-3.5Z" style="fill:#8393a7;"/></svg>