<?xml version="1.0" encoding="UTF-8" standalone="no"?><!DOCTYPE svg PUBLIC "-//W3C//DTD SVG 1.1//EN" "http://www.w3.org/Graphics/SVG/1.1/DTD/svg11.dtd"><svg width="100%" height="100%" viewBox="0 0 49 11" version="1.1" xmlns="http://www.w3.org/2000/svg" xmlns:xlink="http://www.w3.org/1999/xlink" xml:space="preserve" xmlns:serif="http://www.serif.com/" style="fill-rule:evenodd;clip-rule:evenodd;stroke-linejoin:round;stroke-miterlimit:1.41421;"><path d="M5.111,0c1.6,0 2.814,0.461 3.645,1.384c0.83,0.923 1.245,2.208 1.245,3.856c0,0.296 -0.006,0.523 -0.018,0.683l-2.876,0l-4.247,0c0.16,0.628 0.468,1.117 0.923,1.467c0.455,0.351 1.002,0.526 1.642,0.526c0.467,0 0.916,-0.089 1.347,-0.267c0.431,-0.179 0.818,-0.44 1.163,-0.785l1.494,1.513c-0.504,0.566 -1.116,1 -1.836,1.301c-0.719,0.302 -1.522,0.452 -2.408,0.452c-1.046,0 -1.959,-0.209 -2.74,-0.627c-0.781,-0.418 -1.384,-1.009 -1.808,-1.771c-0.425,-0.763 -0.637,-1.643 -0.637,-2.639c0,-1.009 0.215,-1.898 0.646,-2.667c0.43,-0.768 1.033,-1.365 1.808,-1.789c0.775,-0.425 1.661,-0.637 2.657,-0.637Zm2.215,4.244c-0.025,-0.652 -0.234,-1.175 -0.628,-1.568c-0.393,-0.394 -0.916,-0.591 -1.568,-0.591c-0.615,0 -1.129,0.194 -1.541,0.581c-0.412,0.388 -0.674,0.914 -0.784,1.578l4.521,0Z" style="fill-rule:nonzero;"/><path d="M17.621,0c1.046,0 1.971,0.209 2.777,0.627c0.806,0.419 1.43,1.009 1.873,1.772c0.443,0.763 0.664,1.648 0.664,2.657c0,0.996 -0.221,1.879 -0.664,2.648c-0.443,0.769 -1.067,1.365 -1.873,1.79c-0.806,0.424 -1.731,0.636 -2.777,0.636c-1.058,0 -1.99,-0.212 -2.796,-0.636c-0.805,-0.425 -1.43,-1.021 -1.873,-1.79c-0.442,-0.769 -0.664,-1.652 -0.664,-2.648c0,-1.009 0.222,-1.894 0.664,-2.657c0.443,-0.763 1.068,-1.353 1.873,-1.772c0.806,-0.418 1.738,-0.627 2.796,-0.627Zm0,2.362c-0.738,0 -1.338,0.252 -1.799,0.756c-0.462,0.505 -0.692,1.163 -0.692,1.975c0,0.812 0.23,1.47 0.692,1.974c0.461,0.505 1.061,0.757 1.799,0.757c0.726,0 1.319,-0.252 1.781,-0.757c0.461,-0.504 0.691,-1.162 0.691,-1.974c0,-0.812 -0.23,-1.47 -0.691,-1.975c-0.462,-0.504 -1.055,-0.756 -1.781,-0.756Z" style="fill:#e2e2e2;fill-rule:nonzero;"/><path d="M30.112,0c-1.599,0 -2.814,0.461 -3.644,1.384c-0.831,0.923 -1.246,2.208 -1.246,3.856c0,0.296 0.006,0.523 0.019,0.683l7.122,0c-0.16,0.628 -0.467,1.117 -0.922,1.467c-0.456,0.351 -1.003,0.526 -1.643,0.526c-0.467,0 -0.916,-0.089 -1.347,-0.267c-0.43,-0.179 -0.818,-0.44 -1.162,-0.785l-1.495,1.513c0.504,0.566 1.116,1 1.836,1.301c0.72,0.302 1.522,0.452 2.408,0.452c1.046,0 1.959,-0.209 2.74,-0.627c0.781,-0.418 1.384,-1.009 1.809,-1.771c0.424,-0.763 0.636,-1.643 0.636,-2.639c0,-1.009 -0.215,-1.898 -0.646,-2.667c-0.43,-0.768 -1.033,-1.365 -1.808,-1.789c-0.775,-0.425 -1.661,-0.637 -2.657,-0.637Zm-2.214,4.244c0.024,-0.652 0.233,-1.175 0.627,-1.568c0.394,-0.394 0.917,-0.591 1.569,-0.591c0.615,0 1.128,0.194 1.54,0.581c0.412,0.388 0.674,0.914 0.785,1.578l-4.521,0Z" style="fill:#e2e2e2;fill-rule:nonzero;"/><path d="M42.843,0c1.046,0 1.971,0.209 2.777,0.627c0.806,0.419 1.43,1.009 1.873,1.772c0.443,0.763 0.664,1.648 0.664,2.657c0,0.996 -0.221,1.879 -0.664,2.648c-0.443,0.769 -1.067,1.365 -1.873,1.79c-0.806,0.424 -1.731,0.636 -2.777,0.636c-1.058,0 -1.99,-0.212 -2.796,-0.636c-0.805,-0.425 -1.43,-1.021 -1.873,-1.79c-0.442,-0.769 -0.664,-1.652 -0.664,-2.648c0,-1.009 0.222,-1.894 0.664,-2.657c0.443,-0.763 1.068,-1.353 1.873,-1.772c0.806,-0.418 1.738,-0.627 2.796,-0.627Zm0,2.362c-0.738,0 -1.338,0.252 -1.799,0.756c-0.461,0.505 -0.692,1.163 -0.692,1.975c0,0.812 0.231,1.47 0.692,1.974c0.461,0.505 1.061,0.757 1.799,0.757c0.726,0 1.319,-0.252 1.781,-0.757c0.461,-0.504 0.692,-1.162 0.692,-1.974c0,-0.812 -0.231,-1.47 -0.692,-1.975c-0.462,-0.504 -1.055,-0.756 -1.781,-0.756Z" style="fill-rule:nonzero;"/></svg>