<?xml version="1.0" encoding="UTF-8" standalone="no"?><!DOCTYPE svg PUBLIC "-//W3C//DTD SVG 1.1//EN" "http://www.w3.org/Graphics/SVG/1.1/DTD/svg11.dtd"><svg width="100%" height="100%" viewBox="0 0 24 21" version="1.1" xmlns="http://www.w3.org/2000/svg" xmlns:xlink="http://www.w3.org/1999/xlink" xml:space="preserve" xmlns:serif="http://www.serif.com/" style="fill-rule:evenodd;clip-rule:evenodd;stroke-linejoin:round;stroke-miterlimit:1.41421;"><path id="Twitter-Icon" serif:id="Twitter Icon" d="M21.53,4.984c0.009,0.216 0.012,0.434 0.012,0.653c0,6.675 -4.949,14.373 -13.999,14.373c-2.78,0 -5.365,-0.835 -7.543,-2.271c0.385,0.048 0.776,0.07 1.173,0.07c2.305,0 4.427,-0.806 6.112,-2.163c-2.153,-0.037 -3.971,-1.499 -4.598,-3.506c0.301,0.06 0.611,0.092 0.928,0.092c0.447,0 0.881,-0.063 1.297,-0.178c-2.253,-0.465 -3.95,-2.507 -3.95,-4.952c0,-0.026 0,-0.045 0,-0.064c0.664,0.376 1.424,0.605 2.231,0.631c-1.322,-0.908 -2.191,-2.453 -2.191,-4.204c0,-0.927 0.242,-1.793 0.667,-2.541c2.427,3.057 6.054,5.066 10.143,5.28c-0.084,-0.37 -0.127,-0.759 -0.127,-1.153c0,-2.79 2.203,-5.051 4.921,-5.051c1.414,0 2.693,0.614 3.59,1.595c1.122,-0.226 2.174,-0.646 3.127,-1.225c-0.369,1.177 -1.148,2.168 -2.166,2.792c0.996,-0.118 1.946,-0.391 2.827,-0.793c-0.661,1.013 -1.493,1.901 -2.454,2.615Z" style="fill:#8393a7;"/></svg>